<?xml version="1.0" encoding="utf-8" standalone="no"?>
<!DOCTYPE svg PUBLIC "-//W3C//DTD SVG 1.1//EN"
  "http://www.w3.org/Graphics/SVG/1.1/DTD/svg11.dtd">
<svg xmlns:xlink="http://www.w3.org/1999/xlink" width="413.22125pt" height="326.81pt" viewBox="0 0 413.22125 326.81" xmlns="http://www.w3.org/2000/svg" version="1.1">
 <metadata>
  <rdf:RDF xmlns:dc="http://purl.org/dc/elements/1.1/" xmlns:cc="http://creativecommons.org/ns#" xmlns:rdf="http://www.w3.org/1999/02/22-rdf-syntax-ns#">
   <cc:Work>
    <dc:type rdf:resource="http://purl.org/dc/dcmitype/StillImage"/>
    <dc:date>2023-05-29T17:36:12.843663</dc:date>
    <dc:format>image/svg+xml</dc:format>
    <dc:creator>
     <cc:Agent>
      <dc:title>Matplotlib v3.7.1, https://matplotlib.org/</dc:title>
     </cc:Agent>
    </dc:creator>
   </cc:Work>
  </rdf:RDF>
 </metadata>
 <defs>
  <style type="text/css">*{stroke-linejoin: round; stroke-linecap: butt}</style>
 </defs>
 <g id="figure_1">
  <g id="patch_1">
   <path d="M 0 326.81 
L 413.22125 326.81 
L 413.22125 0 
L 0 0 
z
" style="fill: #ffffff"/>
  </g>
  <g id="axes_1">
   <g id="patch_2">
    <path d="M 48.90125 290.25375 
L 406.02125 290.25375 
L 406.02125 24.14175 
L 48.90125 24.14175 
z
" style="fill: #e5e5e5"/>
   </g>
   <g id="matplotlib.axis_1">
    <g id="xtick_1">
     <g id="line2d_1">
      <path d="M 52.104336 290.25375 
L 52.104336 24.14175 
" clip-path="url(#pd0ac4004d0)" style="fill: none; stroke: #ffffff; stroke-width: 0.8; stroke-linecap: square"/>
     </g>
     <g id="line2d_2">
      <defs>
       <path id="mf9c87e4358" d="M 0 0 
L 0 3.5 
" style="stroke: #555555; stroke-width: 0.8"/>
      </defs>
      <g>
       <use xlink:href="#mf9c87e4358" x="52.104336" y="290.25375" style="fill: #555555; stroke: #555555; stroke-width: 0.8"/>
      </g>
     </g>
     <g id="text_1">
      <!-- 1.0 -->
      <g style="fill: #555555" transform="translate(44.152774 304.852187) scale(0.1 -0.1)">
       <defs>
        <path id="DejaVuSans-31" d="M 794 531 
L 1825 531 
L 1825 4091 
L 703 3866 
L 703 4441 
L 1819 4666 
L 2450 4666 
L 2450 531 
L 3481 531 
L 3481 0 
L 794 0 
L 794 531 
z
" transform="scale(0.015625)"/>
        <path id="DejaVuSans-2e" d="M 684 794 
L 1344 794 
L 1344 0 
L 684 0 
L 684 794 
z
" transform="scale(0.015625)"/>
        <path id="DejaVuSans-30" d="M 2034 4250 
Q 1547 4250 1301 3770 
Q 1056 3291 1056 2328 
Q 1056 1369 1301 889 
Q 1547 409 2034 409 
Q 2525 409 2770 889 
Q 3016 1369 3016 2328 
Q 3016 3291 2770 3770 
Q 2525 4250 2034 4250 
z
M 2034 4750 
Q 2819 4750 3233 4129 
Q 3647 3509 3647 2328 
Q 3647 1150 3233 529 
Q 2819 -91 2034 -91 
Q 1250 -91 836 529 
Q 422 1150 422 2328 
Q 422 3509 836 4129 
Q 1250 4750 2034 4750 
z
" transform="scale(0.015625)"/>
       </defs>
       <use xlink:href="#DejaVuSans-31"/>
       <use xlink:href="#DejaVuSans-2e" x="63.623047"/>
       <use xlink:href="#DejaVuSans-30" x="95.410156"/>
      </g>
     </g>
    </g>
    <g id="xtick_2">
     <g id="line2d_3">
      <path d="M 127.46269 290.25375 
L 127.46269 24.14175 
" clip-path="url(#pd0ac4004d0)" style="fill: none; stroke: #ffffff; stroke-width: 0.8; stroke-linecap: square"/>
     </g>
     <g id="line2d_4">
      <g>
       <use xlink:href="#mf9c87e4358" x="127.46269" y="290.25375" style="fill: #555555; stroke: #555555; stroke-width: 0.8"/>
      </g>
     </g>
     <g id="text_2">
      <!-- 1.5 -->
      <g style="fill: #555555" transform="translate(119.511128 304.852187) scale(0.1 -0.1)">
       <defs>
        <path id="DejaVuSans-35" d="M 691 4666 
L 3169 4666 
L 3169 4134 
L 1269 4134 
L 1269 2991 
Q 1406 3038 1543 3061 
Q 1681 3084 1819 3084 
Q 2600 3084 3056 2656 
Q 3513 2228 3513 1497 
Q 3513 744 3044 326 
Q 2575 -91 1722 -91 
Q 1428 -91 1123 -41 
Q 819 9 494 109 
L 494 744 
Q 775 591 1075 516 
Q 1375 441 1709 441 
Q 2250 441 2565 725 
Q 2881 1009 2881 1497 
Q 2881 1984 2565 2268 
Q 2250 2553 1709 2553 
Q 1456 2553 1204 2497 
Q 953 2441 691 2322 
L 691 4666 
z
" transform="scale(0.015625)"/>
       </defs>
       <use xlink:href="#DejaVuSans-31"/>
       <use xlink:href="#DejaVuSans-2e" x="63.623047"/>
       <use xlink:href="#DejaVuSans-35" x="95.410156"/>
      </g>
     </g>
    </g>
    <g id="xtick_3">
     <g id="line2d_5">
      <path d="M 202.821044 290.25375 
L 202.821044 24.14175 
" clip-path="url(#pd0ac4004d0)" style="fill: none; stroke: #ffffff; stroke-width: 0.8; stroke-linecap: square"/>
     </g>
     <g id="line2d_6">
      <g>
       <use xlink:href="#mf9c87e4358" x="202.821044" y="290.25375" style="fill: #555555; stroke: #555555; stroke-width: 0.8"/>
      </g>
     </g>
     <g id="text_3">
      <!-- 2.0 -->
      <g style="fill: #555555" transform="translate(194.869482 304.852187) scale(0.1 -0.1)">
       <defs>
        <path id="DejaVuSans-32" d="M 1228 531 
L 3431 531 
L 3431 0 
L 469 0 
L 469 531 
Q 828 903 1448 1529 
Q 2069 2156 2228 2338 
Q 2531 2678 2651 2914 
Q 2772 3150 2772 3378 
Q 2772 3750 2511 3984 
Q 2250 4219 1831 4219 
Q 1534 4219 1204 4116 
Q 875 4013 500 3803 
L 500 4441 
Q 881 4594 1212 4672 
Q 1544 4750 1819 4750 
Q 2544 4750 2975 4387 
Q 3406 4025 3406 3419 
Q 3406 3131 3298 2873 
Q 3191 2616 2906 2266 
Q 2828 2175 2409 1742 
Q 1991 1309 1228 531 
z
" transform="scale(0.015625)"/>
       </defs>
       <use xlink:href="#DejaVuSans-32"/>
       <use xlink:href="#DejaVuSans-2e" x="63.623047"/>
       <use xlink:href="#DejaVuSans-30" x="95.410156"/>
      </g>
     </g>
    </g>
    <g id="xtick_4">
     <g id="line2d_7">
      <path d="M 278.179399 290.25375 
L 278.179399 24.14175 
" clip-path="url(#pd0ac4004d0)" style="fill: none; stroke: #ffffff; stroke-width: 0.8; stroke-linecap: square"/>
     </g>
     <g id="line2d_8">
      <g>
       <use xlink:href="#mf9c87e4358" x="278.179399" y="290.25375" style="fill: #555555; stroke: #555555; stroke-width: 0.8"/>
      </g>
     </g>
     <g id="text_4">
      <!-- 2.5 -->
      <g style="fill: #555555" transform="translate(270.227836 304.852187) scale(0.1 -0.1)">
       <use xlink:href="#DejaVuSans-32"/>
       <use xlink:href="#DejaVuSans-2e" x="63.623047"/>
       <use xlink:href="#DejaVuSans-35" x="95.410156"/>
      </g>
     </g>
    </g>
    <g id="xtick_5">
     <g id="line2d_9">
      <path d="M 353.537753 290.25375 
L 353.537753 24.14175 
" clip-path="url(#pd0ac4004d0)" style="fill: none; stroke: #ffffff; stroke-width: 0.8; stroke-linecap: square"/>
     </g>
     <g id="line2d_10">
      <g>
       <use xlink:href="#mf9c87e4358" x="353.537753" y="290.25375" style="fill: #555555; stroke: #555555; stroke-width: 0.8"/>
      </g>
     </g>
     <g id="text_5">
      <!-- 3.0 -->
      <g style="fill: #555555" transform="translate(345.58619 304.852187) scale(0.1 -0.1)">
       <defs>
        <path id="DejaVuSans-33" d="M 2597 2516 
Q 3050 2419 3304 2112 
Q 3559 1806 3559 1356 
Q 3559 666 3084 287 
Q 2609 -91 1734 -91 
Q 1441 -91 1130 -33 
Q 819 25 488 141 
L 488 750 
Q 750 597 1062 519 
Q 1375 441 1716 441 
Q 2309 441 2620 675 
Q 2931 909 2931 1356 
Q 2931 1769 2642 2001 
Q 2353 2234 1838 2234 
L 1294 2234 
L 1294 2753 
L 1863 2753 
Q 2328 2753 2575 2939 
Q 2822 3125 2822 3475 
Q 2822 3834 2567 4026 
Q 2313 4219 1838 4219 
Q 1578 4219 1281 4162 
Q 984 4106 628 3988 
L 628 4550 
Q 988 4650 1302 4700 
Q 1616 4750 1894 4750 
Q 2613 4750 3031 4423 
Q 3450 4097 3450 3541 
Q 3450 3153 3228 2886 
Q 3006 2619 2597 2516 
z
" transform="scale(0.015625)"/>
       </defs>
       <use xlink:href="#DejaVuSans-33"/>
       <use xlink:href="#DejaVuSans-2e" x="63.623047"/>
       <use xlink:href="#DejaVuSans-30" x="95.410156"/>
      </g>
     </g>
    </g>
    <g id="text_6">
     <!-- 1e7 -->
     <g style="fill: #555555" transform="translate(387.143125 317.530312) scale(0.1 -0.1)">
      <defs>
       <path id="DejaVuSans-65" d="M 3597 1894 
L 3597 1613 
L 953 1613 
Q 991 1019 1311 708 
Q 1631 397 2203 397 
Q 2534 397 2845 478 
Q 3156 559 3463 722 
L 3463 178 
Q 3153 47 2828 -22 
Q 2503 -91 2169 -91 
Q 1331 -91 842 396 
Q 353 884 353 1716 
Q 353 2575 817 3079 
Q 1281 3584 2069 3584 
Q 2775 3584 3186 3129 
Q 3597 2675 3597 1894 
z
M 3022 2063 
Q 3016 2534 2758 2815 
Q 2500 3097 2075 3097 
Q 1594 3097 1305 2825 
Q 1016 2553 972 2059 
L 3022 2063 
z
" transform="scale(0.015625)"/>
       <path id="DejaVuSans-37" d="M 525 4666 
L 3525 4666 
L 3525 4397 
L 1831 0 
L 1172 0 
L 2766 4134 
L 525 4134 
L 525 4666 
z
" transform="scale(0.015625)"/>
      </defs>
      <use xlink:href="#DejaVuSans-31"/>
      <use xlink:href="#DejaVuSans-65" x="63.623047"/>
      <use xlink:href="#DejaVuSans-37" x="125.146484"/>
     </g>
    </g>
   </g>
   <g id="matplotlib.axis_2">
    <g id="ytick_1">
     <g id="line2d_11">
      <path d="M 48.90125 290.25375 
L 406.02125 290.25375 
" clip-path="url(#pd0ac4004d0)" style="fill: none; stroke: #ffffff; stroke-width: 0.8; stroke-linecap: square"/>
     </g>
     <g id="line2d_12">
      <defs>
       <path id="m47f802ef9b" d="M 0 0 
L -3.5 0 
" style="stroke: #555555; stroke-width: 0.8"/>
      </defs>
      <g>
       <use xlink:href="#m47f802ef9b" x="48.90125" y="290.25375" style="fill: #555555; stroke: #555555; stroke-width: 0.8"/>
      </g>
     </g>
     <g id="text_7">
      <!-- 0 -->
      <g style="fill: #555555" transform="translate(35.53875 294.052969) scale(0.1 -0.1)">
       <use xlink:href="#DejaVuSans-30"/>
      </g>
     </g>
    </g>
    <g id="ytick_2">
     <g id="line2d_13">
      <path d="M 48.90125 234.79642 
L 406.02125 234.79642 
" clip-path="url(#pd0ac4004d0)" style="fill: none; stroke: #ffffff; stroke-width: 0.8; stroke-linecap: square"/>
     </g>
     <g id="line2d_14">
      <g>
       <use xlink:href="#m47f802ef9b" x="48.90125" y="234.79642" style="fill: #555555; stroke: #555555; stroke-width: 0.8"/>
      </g>
     </g>
     <g id="text_8">
      <!-- 100 -->
      <g style="fill: #555555" transform="translate(22.81375 238.595638) scale(0.1 -0.1)">
       <use xlink:href="#DejaVuSans-31"/>
       <use xlink:href="#DejaVuSans-30" x="63.623047"/>
       <use xlink:href="#DejaVuSans-30" x="127.246094"/>
      </g>
     </g>
    </g>
    <g id="ytick_3">
     <g id="line2d_15">
      <path d="M 48.90125 179.339089 
L 406.02125 179.339089 
" clip-path="url(#pd0ac4004d0)" style="fill: none; stroke: #ffffff; stroke-width: 0.8; stroke-linecap: square"/>
     </g>
     <g id="line2d_16">
      <g>
       <use xlink:href="#m47f802ef9b" x="48.90125" y="179.339089" style="fill: #555555; stroke: #555555; stroke-width: 0.8"/>
      </g>
     </g>
     <g id="text_9">
      <!-- 200 -->
      <g style="fill: #555555" transform="translate(22.81375 183.138308) scale(0.1 -0.1)">
       <use xlink:href="#DejaVuSans-32"/>
       <use xlink:href="#DejaVuSans-30" x="63.623047"/>
       <use xlink:href="#DejaVuSans-30" x="127.246094"/>
      </g>
     </g>
    </g>
    <g id="ytick_4">
     <g id="line2d_17">
      <path d="M 48.90125 123.881759 
L 406.02125 123.881759 
" clip-path="url(#pd0ac4004d0)" style="fill: none; stroke: #ffffff; stroke-width: 0.8; stroke-linecap: square"/>
     </g>
     <g id="line2d_18">
      <g>
       <use xlink:href="#m47f802ef9b" x="48.90125" y="123.881759" style="fill: #555555; stroke: #555555; stroke-width: 0.8"/>
      </g>
     </g>
     <g id="text_10">
      <!-- 300 -->
      <g style="fill: #555555" transform="translate(22.81375 127.680978) scale(0.1 -0.1)">
       <use xlink:href="#DejaVuSans-33"/>
       <use xlink:href="#DejaVuSans-30" x="63.623047"/>
       <use xlink:href="#DejaVuSans-30" x="127.246094"/>
      </g>
     </g>
    </g>
    <g id="ytick_5">
     <g id="line2d_19">
      <path d="M 48.90125 68.424428 
L 406.02125 68.424428 
" clip-path="url(#pd0ac4004d0)" style="fill: none; stroke: #ffffff; stroke-width: 0.8; stroke-linecap: square"/>
     </g>
     <g id="line2d_20">
      <g>
       <use xlink:href="#m47f802ef9b" x="48.90125" y="68.424428" style="fill: #555555; stroke: #555555; stroke-width: 0.8"/>
      </g>
     </g>
     <g id="text_11">
      <!-- 400 -->
      <g style="fill: #555555" transform="translate(22.81375 72.223647) scale(0.1 -0.1)">
       <defs>
        <path id="DejaVuSans-34" d="M 2419 4116 
L 825 1625 
L 2419 1625 
L 2419 4116 
z
M 2253 4666 
L 3047 4666 
L 3047 1625 
L 3713 1625 
L 3713 1100 
L 3047 1100 
L 3047 0 
L 2419 0 
L 2419 1100 
L 313 1100 
L 313 1709 
L 2253 4666 
z
" transform="scale(0.015625)"/>
       </defs>
       <use xlink:href="#DejaVuSans-34"/>
       <use xlink:href="#DejaVuSans-30" x="63.623047"/>
       <use xlink:href="#DejaVuSans-30" x="127.246094"/>
      </g>
     </g>
    </g>
    <g id="text_12">
     <!-- Frequency -->
     <g style="fill: #555555" transform="translate(16.318125 188.193375) rotate(-90) scale(0.12 -0.12)">
      <defs>
       <path id="DejaVuSans-46" d="M 628 4666 
L 3309 4666 
L 3309 4134 
L 1259 4134 
L 1259 2759 
L 3109 2759 
L 3109 2228 
L 1259 2228 
L 1259 0 
L 628 0 
L 628 4666 
z
" transform="scale(0.015625)"/>
       <path id="DejaVuSans-72" d="M 2631 2963 
Q 2534 3019 2420 3045 
Q 2306 3072 2169 3072 
Q 1681 3072 1420 2755 
Q 1159 2438 1159 1844 
L 1159 0 
L 581 0 
L 581 3500 
L 1159 3500 
L 1159 2956 
Q 1341 3275 1631 3429 
Q 1922 3584 2338 3584 
Q 2397 3584 2469 3576 
Q 2541 3569 2628 3553 
L 2631 2963 
z
" transform="scale(0.015625)"/>
       <path id="DejaVuSans-71" d="M 947 1747 
Q 947 1113 1208 752 
Q 1469 391 1925 391 
Q 2381 391 2643 752 
Q 2906 1113 2906 1747 
Q 2906 2381 2643 2742 
Q 2381 3103 1925 3103 
Q 1469 3103 1208 2742 
Q 947 2381 947 1747 
z
M 2906 525 
Q 2725 213 2448 61 
Q 2172 -91 1784 -91 
Q 1150 -91 751 415 
Q 353 922 353 1747 
Q 353 2572 751 3078 
Q 1150 3584 1784 3584 
Q 2172 3584 2448 3432 
Q 2725 3281 2906 2969 
L 2906 3500 
L 3481 3500 
L 3481 -1331 
L 2906 -1331 
L 2906 525 
z
" transform="scale(0.015625)"/>
       <path id="DejaVuSans-75" d="M 544 1381 
L 544 3500 
L 1119 3500 
L 1119 1403 
Q 1119 906 1312 657 
Q 1506 409 1894 409 
Q 2359 409 2629 706 
Q 2900 1003 2900 1516 
L 2900 3500 
L 3475 3500 
L 3475 0 
L 2900 0 
L 2900 538 
Q 2691 219 2414 64 
Q 2138 -91 1772 -91 
Q 1169 -91 856 284 
Q 544 659 544 1381 
z
M 1991 3584 
L 1991 3584 
z
" transform="scale(0.015625)"/>
       <path id="DejaVuSans-6e" d="M 3513 2113 
L 3513 0 
L 2938 0 
L 2938 2094 
Q 2938 2591 2744 2837 
Q 2550 3084 2163 3084 
Q 1697 3084 1428 2787 
Q 1159 2491 1159 1978 
L 1159 0 
L 581 0 
L 581 3500 
L 1159 3500 
L 1159 2956 
Q 1366 3272 1645 3428 
Q 1925 3584 2291 3584 
Q 2894 3584 3203 3211 
Q 3513 2838 3513 2113 
z
" transform="scale(0.015625)"/>
       <path id="DejaVuSans-63" d="M 3122 3366 
L 3122 2828 
Q 2878 2963 2633 3030 
Q 2388 3097 2138 3097 
Q 1578 3097 1268 2742 
Q 959 2388 959 1747 
Q 959 1106 1268 751 
Q 1578 397 2138 397 
Q 2388 397 2633 464 
Q 2878 531 3122 666 
L 3122 134 
Q 2881 22 2623 -34 
Q 2366 -91 2075 -91 
Q 1284 -91 818 406 
Q 353 903 353 1747 
Q 353 2603 823 3093 
Q 1294 3584 2113 3584 
Q 2378 3584 2631 3529 
Q 2884 3475 3122 3366 
z
" transform="scale(0.015625)"/>
       <path id="DejaVuSans-79" d="M 2059 -325 
Q 1816 -950 1584 -1140 
Q 1353 -1331 966 -1331 
L 506 -1331 
L 506 -850 
L 844 -850 
Q 1081 -850 1212 -737 
Q 1344 -625 1503 -206 
L 1606 56 
L 191 3500 
L 800 3500 
L 1894 763 
L 2988 3500 
L 3597 3500 
L 2059 -325 
z
" transform="scale(0.015625)"/>
      </defs>
      <use xlink:href="#DejaVuSans-46"/>
      <use xlink:href="#DejaVuSans-72" x="50.269531"/>
      <use xlink:href="#DejaVuSans-65" x="89.132812"/>
      <use xlink:href="#DejaVuSans-71" x="150.65625"/>
      <use xlink:href="#DejaVuSans-75" x="214.132812"/>
      <use xlink:href="#DejaVuSans-65" x="277.511719"/>
      <use xlink:href="#DejaVuSans-6e" x="339.035156"/>
      <use xlink:href="#DejaVuSans-63" x="402.414062"/>
      <use xlink:href="#DejaVuSans-79" x="457.394531"/>
     </g>
    </g>
   </g>
   <g id="patch_3">
    <path d="M 65.133977 290.25375 
L 71.627068 290.25375 
L 71.627068 289.699177 
L 65.133977 289.699177 
z
" clip-path="url(#pd0ac4004d0)" style="fill: #e24a33; opacity: 0.5"/>
   </g>
   <g id="patch_4">
    <path d="M 71.627068 290.25375 
L 78.120159 290.25375 
L 78.120159 290.25375 
L 71.627068 290.25375 
z
" clip-path="url(#pd0ac4004d0)" style="fill: #e24a33; opacity: 0.5"/>
   </g>
   <g id="patch_5">
    <path d="M 78.120159 290.25375 
L 84.61325 290.25375 
L 84.61325 286.92631 
L 78.120159 286.92631 
z
" clip-path="url(#pd0ac4004d0)" style="fill: #e24a33; opacity: 0.5"/>
   </g>
   <g id="patch_6">
    <path d="M 84.61325 290.25375 
L 91.106341 290.25375 
L 91.106341 285.817164 
L 84.61325 285.817164 
z
" clip-path="url(#pd0ac4004d0)" style="fill: #e24a33; opacity: 0.5"/>
   </g>
   <g id="patch_7">
    <path d="M 91.106341 290.25375 
L 97.599432 290.25375 
L 97.599432 278.053137 
L 91.106341 278.053137 
z
" clip-path="url(#pd0ac4004d0)" style="fill: #e24a33; opacity: 0.5"/>
   </g>
   <g id="patch_8">
    <path d="M 97.599432 290.25375 
L 104.092523 290.25375 
L 104.092523 273.061978 
L 97.599432 273.061978 
z
" clip-path="url(#pd0ac4004d0)" style="fill: #e24a33; opacity: 0.5"/>
   </g>
   <g id="patch_9">
    <path d="M 104.092523 290.25375 
L 110.585614 290.25375 
L 110.585614 268.070818 
L 104.092523 268.070818 
z
" clip-path="url(#pd0ac4004d0)" style="fill: #e24a33; opacity: 0.5"/>
   </g>
   <g id="patch_10">
    <path d="M 110.585614 290.25375 
L 117.078705 290.25375 
L 117.078705 254.761059 
L 110.585614 254.761059 
z
" clip-path="url(#pd0ac4004d0)" style="fill: #e24a33; opacity: 0.5"/>
   </g>
   <g id="patch_11">
    <path d="M 117.078705 290.25375 
L 123.571795 290.25375 
L 123.571795 244.224166 
L 117.078705 244.224166 
z
" clip-path="url(#pd0ac4004d0)" style="fill: #e24a33; opacity: 0.5"/>
   </g>
   <g id="patch_12">
    <path d="M 123.571795 290.25375 
L 130.064886 290.25375 
L 130.064886 221.48666 
L 123.571795 221.48666 
z
" clip-path="url(#pd0ac4004d0)" style="fill: #e24a33; opacity: 0.5"/>
   </g>
   <g id="patch_13">
    <path d="M 130.064886 290.25375 
L 136.557977 290.25375 
L 136.557977 193.203422 
L 130.064886 193.203422 
z
" clip-path="url(#pd0ac4004d0)" style="fill: #e24a33; opacity: 0.5"/>
   </g>
   <g id="patch_14">
    <path d="M 136.557977 290.25375 
L 143.051068 290.25375 
L 143.051068 192.094275 
L 136.557977 192.094275 
z
" clip-path="url(#pd0ac4004d0)" style="fill: #e24a33; opacity: 0.5"/>
   </g>
   <g id="patch_15">
    <path d="M 143.051068 290.25375 
L 149.544159 290.25375 
L 149.544159 159.929024 
L 143.051068 159.929024 
z
" clip-path="url(#pd0ac4004d0)" style="fill: #e24a33; opacity: 0.5"/>
   </g>
   <g id="patch_16">
    <path d="M 149.544159 290.25375 
L 156.03725 290.25375 
L 156.03725 146.619264 
L 149.544159 146.619264 
z
" clip-path="url(#pd0ac4004d0)" style="fill: #e24a33; opacity: 0.5"/>
   </g>
   <g id="patch_17">
    <path d="M 156.03725 290.25375 
L 162.530341 290.25375 
L 162.530341 148.282984 
L 156.03725 148.282984 
z
" clip-path="url(#pd0ac4004d0)" style="fill: #e24a33; opacity: 0.5"/>
   </g>
   <g id="patch_18">
    <path d="M 162.530341 290.25375 
L 169.023432 290.25375 
L 169.023432 111.126573 
L 162.530341 111.126573 
z
" clip-path="url(#pd0ac4004d0)" style="fill: #e24a33; opacity: 0.5"/>
   </g>
   <g id="patch_19">
    <path d="M 169.023432 290.25375 
L 175.516523 290.25375 
L 175.516523 119.999746 
L 169.023432 119.999746 
z
" clip-path="url(#pd0ac4004d0)" style="fill: #e24a33; opacity: 0.5"/>
   </g>
   <g id="patch_20">
    <path d="M 175.516523 290.25375 
L 182.009614 290.25375 
L 182.009614 117.226879 
L 175.516523 117.226879 
z
" clip-path="url(#pd0ac4004d0)" style="fill: #e24a33; opacity: 0.5"/>
   </g>
   <g id="patch_21">
    <path d="M 182.009614 290.25375 
L 188.502705 290.25375 
L 188.502705 112.790293 
L 182.009614 112.790293 
z
" clip-path="url(#pd0ac4004d0)" style="fill: #e24a33; opacity: 0.5"/>
   </g>
   <g id="patch_22">
    <path d="M 188.502705 290.25375 
L 194.995795 290.25375 
L 194.995795 121.108892 
L 188.502705 121.108892 
z
" clip-path="url(#pd0ac4004d0)" style="fill: #e24a33; opacity: 0.5"/>
   </g>
   <g id="patch_23">
    <path d="M 194.995795 290.25375 
L 201.488886 290.25375 
L 201.488886 123.881759 
L 194.995795 123.881759 
z
" clip-path="url(#pd0ac4004d0)" style="fill: #e24a33; opacity: 0.5"/>
   </g>
   <g id="patch_24">
    <path d="M 201.488886 290.25375 
L 207.981977 290.25375 
L 207.981977 135.527798 
L 201.488886 135.527798 
z
" clip-path="url(#pd0ac4004d0)" style="fill: #e24a33; opacity: 0.5"/>
   </g>
   <g id="patch_25">
    <path d="M 207.981977 290.25375 
L 214.475068 290.25375 
L 214.475068 167.138476 
L 207.981977 167.138476 
z
" clip-path="url(#pd0ac4004d0)" style="fill: #e24a33; opacity: 0.5"/>
   </g>
   <g id="patch_26">
    <path d="M 214.475068 290.25375 
L 220.968159 290.25375 
L 220.968159 168.247623 
L 214.475068 168.247623 
z
" clip-path="url(#pd0ac4004d0)" style="fill: #e24a33; opacity: 0.5"/>
   </g>
   <g id="patch_27">
    <path d="M 220.968159 290.25375 
L 227.46125 290.25375 
L 227.46125 192.648848 
L 220.968159 192.648848 
z
" clip-path="url(#pd0ac4004d0)" style="fill: #e24a33; opacity: 0.5"/>
   </g>
   <g id="patch_28">
    <path d="M 227.46125 290.25375 
L 233.954341 290.25375 
L 233.954341 197.085435 
L 227.46125 197.085435 
z
" clip-path="url(#pd0ac4004d0)" style="fill: #e24a33; opacity: 0.5"/>
   </g>
   <g id="patch_29">
    <path d="M 233.954341 290.25375 
L 240.447432 290.25375 
L 240.447432 217.050074 
L 233.954341 217.050074 
z
" clip-path="url(#pd0ac4004d0)" style="fill: #e24a33; opacity: 0.5"/>
   </g>
   <g id="patch_30">
    <path d="M 240.447432 290.25375 
L 246.940523 290.25375 
L 246.940523 239.787579 
L 240.447432 239.787579 
z
" clip-path="url(#pd0ac4004d0)" style="fill: #e24a33; opacity: 0.5"/>
   </g>
   <g id="patch_31">
    <path d="M 246.940523 290.25375 
L 253.433614 290.25375 
L 253.433614 244.778739 
L 246.940523 244.778739 
z
" clip-path="url(#pd0ac4004d0)" style="fill: #e24a33; opacity: 0.5"/>
   </g>
   <g id="patch_32">
    <path d="M 253.433614 290.25375 
L 259.926705 290.25375 
L 259.926705 256.424778 
L 253.433614 256.424778 
z
" clip-path="url(#pd0ac4004d0)" style="fill: #e24a33; opacity: 0.5"/>
   </g>
   <g id="patch_33">
    <path d="M 259.926705 290.25375 
L 266.419795 290.25375 
L 266.419795 263.634231 
L 259.926705 263.634231 
z
" clip-path="url(#pd0ac4004d0)" style="fill: #e24a33; opacity: 0.5"/>
   </g>
   <g id="patch_34">
    <path d="M 266.419795 290.25375 
L 272.912886 290.25375 
L 272.912886 268.070818 
L 266.419795 268.070818 
z
" clip-path="url(#pd0ac4004d0)" style="fill: #e24a33; opacity: 0.5"/>
   </g>
   <g id="patch_35">
    <path d="M 272.912886 290.25375 
L 279.405977 290.25375 
L 279.405977 274.725697 
L 272.912886 274.725697 
z
" clip-path="url(#pd0ac4004d0)" style="fill: #e24a33; opacity: 0.5"/>
   </g>
   <g id="patch_36">
    <path d="M 279.405977 290.25375 
L 285.899068 290.25375 
L 285.899068 278.607711 
L 279.405977 278.607711 
z
" clip-path="url(#pd0ac4004d0)" style="fill: #e24a33; opacity: 0.5"/>
   </g>
   <g id="patch_37">
    <path d="M 285.899068 290.25375 
L 292.392159 290.25375 
L 292.392159 279.716857 
L 285.899068 279.716857 
z
" clip-path="url(#pd0ac4004d0)" style="fill: #e24a33; opacity: 0.5"/>
   </g>
   <g id="patch_38">
    <path d="M 292.392159 290.25375 
L 298.88525 290.25375 
L 298.88525 280.826004 
L 292.392159 280.826004 
z
" clip-path="url(#pd0ac4004d0)" style="fill: #e24a33; opacity: 0.5"/>
   </g>
   <g id="patch_39">
    <path d="M 298.88525 290.25375 
L 305.378341 290.25375 
L 305.378341 282.489724 
L 298.88525 282.489724 
z
" clip-path="url(#pd0ac4004d0)" style="fill: #e24a33; opacity: 0.5"/>
   </g>
   <g id="patch_40">
    <path d="M 305.378341 290.25375 
L 311.871432 290.25375 
L 311.871432 284.153444 
L 305.378341 284.153444 
z
" clip-path="url(#pd0ac4004d0)" style="fill: #e24a33; opacity: 0.5"/>
   </g>
   <g id="patch_41">
    <path d="M 311.871432 290.25375 
L 318.364523 290.25375 
L 318.364523 288.035457 
L 311.871432 288.035457 
z
" clip-path="url(#pd0ac4004d0)" style="fill: #e24a33; opacity: 0.5"/>
   </g>
   <g id="patch_42">
    <path d="M 318.364523 290.25375 
L 324.857614 290.25375 
L 324.857614 288.035457 
L 318.364523 288.035457 
z
" clip-path="url(#pd0ac4004d0)" style="fill: #e24a33; opacity: 0.5"/>
   </g>
   <g id="patch_43">
    <path d="M 324.857614 290.25375 
L 331.350705 290.25375 
L 331.350705 286.92631 
L 324.857614 286.92631 
z
" clip-path="url(#pd0ac4004d0)" style="fill: #e24a33; opacity: 0.5"/>
   </g>
   <g id="patch_44">
    <path d="M 331.350705 290.25375 
L 337.843795 290.25375 
L 337.843795 289.699177 
L 331.350705 289.699177 
z
" clip-path="url(#pd0ac4004d0)" style="fill: #e24a33; opacity: 0.5"/>
   </g>
   <g id="patch_45">
    <path d="M 337.843795 290.25375 
L 344.336886 290.25375 
L 344.336886 288.59003 
L 337.843795 288.59003 
z
" clip-path="url(#pd0ac4004d0)" style="fill: #e24a33; opacity: 0.5"/>
   </g>
   <g id="patch_46">
    <path d="M 344.336886 290.25375 
L 350.829977 290.25375 
L 350.829977 289.699177 
L 344.336886 289.699177 
z
" clip-path="url(#pd0ac4004d0)" style="fill: #e24a33; opacity: 0.5"/>
   </g>
   <g id="patch_47">
    <path d="M 350.829977 290.25375 
L 357.323068 290.25375 
L 357.323068 289.699177 
L 350.829977 289.699177 
z
" clip-path="url(#pd0ac4004d0)" style="fill: #e24a33; opacity: 0.5"/>
   </g>
   <g id="patch_48">
    <path d="M 357.323068 290.25375 
L 363.816159 290.25375 
L 363.816159 289.699177 
L 357.323068 289.699177 
z
" clip-path="url(#pd0ac4004d0)" style="fill: #e24a33; opacity: 0.5"/>
   </g>
   <g id="patch_49">
    <path d="M 363.816159 290.25375 
L 370.30925 290.25375 
L 370.30925 289.699177 
L 363.816159 289.699177 
z
" clip-path="url(#pd0ac4004d0)" style="fill: #e24a33; opacity: 0.5"/>
   </g>
   <g id="patch_50">
    <path d="M 370.30925 290.25375 
L 376.802341 290.25375 
L 376.802341 290.25375 
L 370.30925 290.25375 
z
" clip-path="url(#pd0ac4004d0)" style="fill: #e24a33; opacity: 0.5"/>
   </g>
   <g id="patch_51">
    <path d="M 376.802341 290.25375 
L 383.295432 290.25375 
L 383.295432 290.25375 
L 376.802341 290.25375 
z
" clip-path="url(#pd0ac4004d0)" style="fill: #e24a33; opacity: 0.5"/>
   </g>
   <g id="patch_52">
    <path d="M 383.295432 290.25375 
L 389.788523 290.25375 
L 389.788523 289.699177 
L 383.295432 289.699177 
z
" clip-path="url(#pd0ac4004d0)" style="fill: #e24a33; opacity: 0.5"/>
   </g>
   <g id="patch_53">
    <path d="M 65.133977 290.25375 
L 71.627068 290.25375 
L 71.627068 290.25375 
L 65.133977 290.25375 
z
" clip-path="url(#pd0ac4004d0)" style="fill: #348abd; opacity: 0.5"/>
   </g>
   <g id="patch_54">
    <path d="M 71.627068 290.25375 
L 78.120159 290.25375 
L 78.120159 290.25375 
L 71.627068 290.25375 
z
" clip-path="url(#pd0ac4004d0)" style="fill: #348abd; opacity: 0.5"/>
   </g>
   <g id="patch_55">
    <path d="M 78.120159 290.25375 
L 84.61325 290.25375 
L 84.61325 290.25375 
L 78.120159 290.25375 
z
" clip-path="url(#pd0ac4004d0)" style="fill: #348abd; opacity: 0.5"/>
   </g>
   <g id="patch_56">
    <path d="M 84.61325 290.25375 
L 91.106341 290.25375 
L 91.106341 290.25375 
L 84.61325 290.25375 
z
" clip-path="url(#pd0ac4004d0)" style="fill: #348abd; opacity: 0.5"/>
   </g>
   <g id="patch_57">
    <path d="M 91.106341 290.25375 
L 97.599432 290.25375 
L 97.599432 287.480883 
L 91.106341 287.480883 
z
" clip-path="url(#pd0ac4004d0)" style="fill: #348abd; opacity: 0.5"/>
   </g>
   <g id="patch_58">
    <path d="M 97.599432 290.25375 
L 104.092523 290.25375 
L 104.092523 288.035457 
L 97.599432 288.035457 
z
" clip-path="url(#pd0ac4004d0)" style="fill: #348abd; opacity: 0.5"/>
   </g>
   <g id="patch_59">
    <path d="M 104.092523 290.25375 
L 110.585614 290.25375 
L 110.585614 281.93515 
L 104.092523 281.93515 
z
" clip-path="url(#pd0ac4004d0)" style="fill: #348abd; opacity: 0.5"/>
   </g>
   <g id="patch_60">
    <path d="M 110.585614 290.25375 
L 117.078705 290.25375 
L 117.078705 281.93515 
L 110.585614 281.93515 
z
" clip-path="url(#pd0ac4004d0)" style="fill: #348abd; opacity: 0.5"/>
   </g>
   <g id="patch_61">
    <path d="M 117.078705 290.25375 
L 123.571795 290.25375 
L 123.571795 271.398258 
L 117.078705 271.398258 
z
" clip-path="url(#pd0ac4004d0)" style="fill: #348abd; opacity: 0.5"/>
   </g>
   <g id="patch_62">
    <path d="M 123.571795 290.25375 
L 130.064886 290.25375 
L 130.064886 250.879045 
L 123.571795 250.879045 
z
" clip-path="url(#pd0ac4004d0)" style="fill: #348abd; opacity: 0.5"/>
   </g>
   <g id="patch_63">
    <path d="M 130.064886 290.25375 
L 136.557977 290.25375 
L 136.557977 233.1327 
L 130.064886 233.1327 
z
" clip-path="url(#pd0ac4004d0)" style="fill: #348abd; opacity: 0.5"/>
   </g>
   <g id="patch_64">
    <path d="M 136.557977 290.25375 
L 143.051068 290.25375 
L 143.051068 203.740315 
L 136.557977 203.740315 
z
" clip-path="url(#pd0ac4004d0)" style="fill: #348abd; opacity: 0.5"/>
   </g>
   <g id="patch_65">
    <path d="M 143.051068 290.25375 
L 149.544159 290.25375 
L 149.544159 157.71073 
L 143.051068 157.71073 
z
" clip-path="url(#pd0ac4004d0)" style="fill: #348abd; opacity: 0.5"/>
   </g>
   <g id="patch_66">
    <path d="M 149.544159 290.25375 
L 156.03725 290.25375 
L 156.03725 146.064691 
L 149.544159 146.064691 
z
" clip-path="url(#pd0ac4004d0)" style="fill: #348abd; opacity: 0.5"/>
   </g>
   <g id="patch_67">
    <path d="M 156.03725 290.25375 
L 162.530341 290.25375 
L 162.530341 97.816813 
L 156.03725 97.816813 
z
" clip-path="url(#pd0ac4004d0)" style="fill: #348abd; opacity: 0.5"/>
   </g>
   <g id="patch_68">
    <path d="M 162.530341 290.25375 
L 169.023432 290.25375 
L 169.023432 69.533575 
L 162.530341 69.533575 
z
" clip-path="url(#pd0ac4004d0)" style="fill: #348abd; opacity: 0.5"/>
   </g>
   <g id="patch_69">
    <path d="M 169.023432 290.25375 
L 175.516523 290.25375 
L 175.516523 69.533575 
L 169.023432 69.533575 
z
" clip-path="url(#pd0ac4004d0)" style="fill: #348abd; opacity: 0.5"/>
   </g>
   <g id="patch_70">
    <path d="M 175.516523 290.25375 
L 182.009614 290.25375 
L 182.009614 60.105829 
L 175.516523 60.105829 
z
" clip-path="url(#pd0ac4004d0)" style="fill: #348abd; opacity: 0.5"/>
   </g>
   <g id="patch_71">
    <path d="M 182.009614 290.25375 
L 188.502705 290.25375 
L 188.502705 36.81375 
L 182.009614 36.81375 
z
" clip-path="url(#pd0ac4004d0)" style="fill: #348abd; opacity: 0.5"/>
   </g>
   <g id="patch_72">
    <path d="M 188.502705 290.25375 
L 194.995795 290.25375 
L 194.995795 66.760708 
L 188.502705 66.760708 
z
" clip-path="url(#pd0ac4004d0)" style="fill: #348abd; opacity: 0.5"/>
   </g>
   <g id="patch_73">
    <path d="M 194.995795 290.25375 
L 201.488886 290.25375 
L 201.488886 77.852175 
L 194.995795 77.852175 
z
" clip-path="url(#pd0ac4004d0)" style="fill: #348abd; opacity: 0.5"/>
   </g>
   <g id="patch_74">
    <path d="M 201.488886 290.25375 
L 207.981977 290.25375 
L 207.981977 124.990905 
L 201.488886 124.990905 
z
" clip-path="url(#pd0ac4004d0)" style="fill: #348abd; opacity: 0.5"/>
   </g>
   <g id="patch_75">
    <path d="M 207.981977 290.25375 
L 214.475068 290.25375 
L 214.475068 136.636945 
L 207.981977 136.636945 
z
" clip-path="url(#pd0ac4004d0)" style="fill: #348abd; opacity: 0.5"/>
   </g>
   <g id="patch_76">
    <path d="M 214.475068 290.25375 
L 220.968159 290.25375 
L 220.968159 178.229943 
L 214.475068 178.229943 
z
" clip-path="url(#pd0ac4004d0)" style="fill: #348abd; opacity: 0.5"/>
   </g>
   <g id="patch_77">
    <path d="M 220.968159 290.25375 
L 227.46125 290.25375 
L 227.46125 207.067754 
L 220.968159 207.067754 
z
" clip-path="url(#pd0ac4004d0)" style="fill: #348abd; opacity: 0.5"/>
   </g>
   <g id="patch_78">
    <path d="M 227.46125 290.25375 
L 233.954341 290.25375 
L 233.954341 220.377514 
L 227.46125 220.377514 
z
" clip-path="url(#pd0ac4004d0)" style="fill: #348abd; opacity: 0.5"/>
   </g>
   <g id="patch_79">
    <path d="M 233.954341 290.25375 
L 240.447432 290.25375 
L 240.447432 246.442459 
L 233.954341 246.442459 
z
" clip-path="url(#pd0ac4004d0)" style="fill: #348abd; opacity: 0.5"/>
   </g>
   <g id="patch_80">
    <path d="M 240.447432 290.25375 
L 246.940523 290.25375 
L 246.940523 259.752218 
L 240.447432 259.752218 
z
" clip-path="url(#pd0ac4004d0)" style="fill: #348abd; opacity: 0.5"/>
   </g>
   <g id="patch_81">
    <path d="M 246.940523 290.25375 
L 253.433614 290.25375 
L 253.433614 263.634231 
L 246.940523 263.634231 
z
" clip-path="url(#pd0ac4004d0)" style="fill: #348abd; opacity: 0.5"/>
   </g>
   <g id="patch_82">
    <path d="M 253.433614 290.25375 
L 259.926705 290.25375 
L 259.926705 276.389417 
L 253.433614 276.389417 
z
" clip-path="url(#pd0ac4004d0)" style="fill: #348abd; opacity: 0.5"/>
   </g>
   <g id="patch_83">
    <path d="M 259.926705 290.25375 
L 266.419795 290.25375 
L 266.419795 283.59887 
L 259.926705 283.59887 
z
" clip-path="url(#pd0ac4004d0)" style="fill: #348abd; opacity: 0.5"/>
   </g>
   <g id="patch_84">
    <path d="M 266.419795 290.25375 
L 272.912886 290.25375 
L 272.912886 284.153444 
L 266.419795 284.153444 
z
" clip-path="url(#pd0ac4004d0)" style="fill: #348abd; opacity: 0.5"/>
   </g>
   <g id="patch_85">
    <path d="M 272.912886 290.25375 
L 279.405977 290.25375 
L 279.405977 286.371737 
L 272.912886 286.371737 
z
" clip-path="url(#pd0ac4004d0)" style="fill: #348abd; opacity: 0.5"/>
   </g>
   <g id="patch_86">
    <path d="M 279.405977 290.25375 
L 285.899068 290.25375 
L 285.899068 289.144603 
L 279.405977 289.144603 
z
" clip-path="url(#pd0ac4004d0)" style="fill: #348abd; opacity: 0.5"/>
   </g>
   <g id="patch_87">
    <path d="M 285.899068 290.25375 
L 292.392159 290.25375 
L 292.392159 288.035457 
L 285.899068 288.035457 
z
" clip-path="url(#pd0ac4004d0)" style="fill: #348abd; opacity: 0.5"/>
   </g>
   <g id="patch_88">
    <path d="M 292.392159 290.25375 
L 298.88525 290.25375 
L 298.88525 290.25375 
L 292.392159 290.25375 
z
" clip-path="url(#pd0ac4004d0)" style="fill: #348abd; opacity: 0.5"/>
   </g>
   <g id="patch_89">
    <path d="M 298.88525 290.25375 
L 305.378341 290.25375 
L 305.378341 289.699177 
L 298.88525 289.699177 
z
" clip-path="url(#pd0ac4004d0)" style="fill: #348abd; opacity: 0.5"/>
   </g>
   <g id="patch_90">
    <path d="M 305.378341 290.25375 
L 311.871432 290.25375 
L 311.871432 290.25375 
L 305.378341 290.25375 
z
" clip-path="url(#pd0ac4004d0)" style="fill: #348abd; opacity: 0.5"/>
   </g>
   <g id="patch_91">
    <path d="M 311.871432 290.25375 
L 318.364523 290.25375 
L 318.364523 290.25375 
L 311.871432 290.25375 
z
" clip-path="url(#pd0ac4004d0)" style="fill: #348abd; opacity: 0.5"/>
   </g>
   <g id="patch_92">
    <path d="M 318.364523 290.25375 
L 324.857614 290.25375 
L 324.857614 290.25375 
L 318.364523 290.25375 
z
" clip-path="url(#pd0ac4004d0)" style="fill: #348abd; opacity: 0.5"/>
   </g>
   <g id="patch_93">
    <path d="M 324.857614 290.25375 
L 331.350705 290.25375 
L 331.350705 290.25375 
L 324.857614 290.25375 
z
" clip-path="url(#pd0ac4004d0)" style="fill: #348abd; opacity: 0.5"/>
   </g>
   <g id="patch_94">
    <path d="M 331.350705 290.25375 
L 337.843795 290.25375 
L 337.843795 290.25375 
L 331.350705 290.25375 
z
" clip-path="url(#pd0ac4004d0)" style="fill: #348abd; opacity: 0.5"/>
   </g>
   <g id="patch_95">
    <path d="M 337.843795 290.25375 
L 344.336886 290.25375 
L 344.336886 290.25375 
L 337.843795 290.25375 
z
" clip-path="url(#pd0ac4004d0)" style="fill: #348abd; opacity: 0.5"/>
   </g>
   <g id="patch_96">
    <path d="M 344.336886 290.25375 
L 350.829977 290.25375 
L 350.829977 290.25375 
L 344.336886 290.25375 
z
" clip-path="url(#pd0ac4004d0)" style="fill: #348abd; opacity: 0.5"/>
   </g>
   <g id="patch_97">
    <path d="M 350.829977 290.25375 
L 357.323068 290.25375 
L 357.323068 290.25375 
L 350.829977 290.25375 
z
" clip-path="url(#pd0ac4004d0)" style="fill: #348abd; opacity: 0.5"/>
   </g>
   <g id="patch_98">
    <path d="M 357.323068 290.25375 
L 363.816159 290.25375 
L 363.816159 290.25375 
L 357.323068 290.25375 
z
" clip-path="url(#pd0ac4004d0)" style="fill: #348abd; opacity: 0.5"/>
   </g>
   <g id="patch_99">
    <path d="M 363.816159 290.25375 
L 370.30925 290.25375 
L 370.30925 290.25375 
L 363.816159 290.25375 
z
" clip-path="url(#pd0ac4004d0)" style="fill: #348abd; opacity: 0.5"/>
   </g>
   <g id="patch_100">
    <path d="M 370.30925 290.25375 
L 376.802341 290.25375 
L 376.802341 290.25375 
L 370.30925 290.25375 
z
" clip-path="url(#pd0ac4004d0)" style="fill: #348abd; opacity: 0.5"/>
   </g>
   <g id="patch_101">
    <path d="M 376.802341 290.25375 
L 383.295432 290.25375 
L 383.295432 290.25375 
L 376.802341 290.25375 
z
" clip-path="url(#pd0ac4004d0)" style="fill: #348abd; opacity: 0.5"/>
   </g>
   <g id="patch_102">
    <path d="M 383.295432 290.25375 
L 389.788523 290.25375 
L 389.788523 290.25375 
L 383.295432 290.25375 
z
" clip-path="url(#pd0ac4004d0)" style="fill: #348abd; opacity: 0.5"/>
   </g>
   <g id="patch_103">
    <path d="M 48.90125 290.25375 
L 48.90125 24.14175 
" style="fill: none; stroke: #ffffff; stroke-linejoin: miter; stroke-linecap: square"/>
   </g>
   <g id="patch_104">
    <path d="M 406.02125 290.25375 
L 406.02125 24.14175 
" style="fill: none; stroke: #ffffff; stroke-linejoin: miter; stroke-linecap: square"/>
   </g>
   <g id="patch_105">
    <path d="M 48.90125 290.25375 
L 406.02125 290.25375 
" style="fill: none; stroke: #ffffff; stroke-linejoin: miter; stroke-linecap: square"/>
   </g>
   <g id="patch_106">
    <path d="M 48.90125 24.14175 
L 406.02125 24.14175 
" style="fill: none; stroke: #ffffff; stroke-linejoin: miter; stroke-linecap: square"/>
   </g>
   <g id="text_13">
    <!-- Reserve Variability -->
    <g transform="translate(160.423625 18.14175) scale(0.144 -0.144)">
     <defs>
      <path id="DejaVuSans-52" d="M 2841 2188 
Q 3044 2119 3236 1894 
Q 3428 1669 3622 1275 
L 4263 0 
L 3584 0 
L 2988 1197 
Q 2756 1666 2539 1819 
Q 2322 1972 1947 1972 
L 1259 1972 
L 1259 0 
L 628 0 
L 628 4666 
L 2053 4666 
Q 2853 4666 3247 4331 
Q 3641 3997 3641 3322 
Q 3641 2881 3436 2590 
Q 3231 2300 2841 2188 
z
M 1259 4147 
L 1259 2491 
L 2053 2491 
Q 2509 2491 2742 2702 
Q 2975 2913 2975 3322 
Q 2975 3731 2742 3939 
Q 2509 4147 2053 4147 
L 1259 4147 
z
" transform="scale(0.015625)"/>
      <path id="DejaVuSans-73" d="M 2834 3397 
L 2834 2853 
Q 2591 2978 2328 3040 
Q 2066 3103 1784 3103 
Q 1356 3103 1142 2972 
Q 928 2841 928 2578 
Q 928 2378 1081 2264 
Q 1234 2150 1697 2047 
L 1894 2003 
Q 2506 1872 2764 1633 
Q 3022 1394 3022 966 
Q 3022 478 2636 193 
Q 2250 -91 1575 -91 
Q 1294 -91 989 -36 
Q 684 19 347 128 
L 347 722 
Q 666 556 975 473 
Q 1284 391 1588 391 
Q 1994 391 2212 530 
Q 2431 669 2431 922 
Q 2431 1156 2273 1281 
Q 2116 1406 1581 1522 
L 1381 1569 
Q 847 1681 609 1914 
Q 372 2147 372 2553 
Q 372 3047 722 3315 
Q 1072 3584 1716 3584 
Q 2034 3584 2315 3537 
Q 2597 3491 2834 3397 
z
" transform="scale(0.015625)"/>
      <path id="DejaVuSans-76" d="M 191 3500 
L 800 3500 
L 1894 563 
L 2988 3500 
L 3597 3500 
L 2284 0 
L 1503 0 
L 191 3500 
z
" transform="scale(0.015625)"/>
      <path id="DejaVuSans-20" transform="scale(0.015625)"/>
      <path id="DejaVuSans-56" d="M 1831 0 
L 50 4666 
L 709 4666 
L 2188 738 
L 3669 4666 
L 4325 4666 
L 2547 0 
L 1831 0 
z
" transform="scale(0.015625)"/>
      <path id="DejaVuSans-61" d="M 2194 1759 
Q 1497 1759 1228 1600 
Q 959 1441 959 1056 
Q 959 750 1161 570 
Q 1363 391 1709 391 
Q 2188 391 2477 730 
Q 2766 1069 2766 1631 
L 2766 1759 
L 2194 1759 
z
M 3341 1997 
L 3341 0 
L 2766 0 
L 2766 531 
Q 2569 213 2275 61 
Q 1981 -91 1556 -91 
Q 1019 -91 701 211 
Q 384 513 384 1019 
Q 384 1609 779 1909 
Q 1175 2209 1959 2209 
L 2766 2209 
L 2766 2266 
Q 2766 2663 2505 2880 
Q 2244 3097 1772 3097 
Q 1472 3097 1187 3025 
Q 903 2953 641 2809 
L 641 3341 
Q 956 3463 1253 3523 
Q 1550 3584 1831 3584 
Q 2591 3584 2966 3190 
Q 3341 2797 3341 1997 
z
" transform="scale(0.015625)"/>
      <path id="DejaVuSans-69" d="M 603 3500 
L 1178 3500 
L 1178 0 
L 603 0 
L 603 3500 
z
M 603 4863 
L 1178 4863 
L 1178 4134 
L 603 4134 
L 603 4863 
z
" transform="scale(0.015625)"/>
      <path id="DejaVuSans-62" d="M 3116 1747 
Q 3116 2381 2855 2742 
Q 2594 3103 2138 3103 
Q 1681 3103 1420 2742 
Q 1159 2381 1159 1747 
Q 1159 1113 1420 752 
Q 1681 391 2138 391 
Q 2594 391 2855 752 
Q 3116 1113 3116 1747 
z
M 1159 2969 
Q 1341 3281 1617 3432 
Q 1894 3584 2278 3584 
Q 2916 3584 3314 3078 
Q 3713 2572 3713 1747 
Q 3713 922 3314 415 
Q 2916 -91 2278 -91 
Q 1894 -91 1617 61 
Q 1341 213 1159 525 
L 1159 0 
L 581 0 
L 581 4863 
L 1159 4863 
L 1159 2969 
z
" transform="scale(0.015625)"/>
      <path id="DejaVuSans-6c" d="M 603 4863 
L 1178 4863 
L 1178 0 
L 603 0 
L 603 4863 
z
" transform="scale(0.015625)"/>
      <path id="DejaVuSans-74" d="M 1172 4494 
L 1172 3500 
L 2356 3500 
L 2356 3053 
L 1172 3053 
L 1172 1153 
Q 1172 725 1289 603 
Q 1406 481 1766 481 
L 2356 481 
L 2356 0 
L 1766 0 
Q 1100 0 847 248 
Q 594 497 594 1153 
L 594 3053 
L 172 3053 
L 172 3500 
L 594 3500 
L 594 4494 
L 1172 4494 
z
" transform="scale(0.015625)"/>
     </defs>
     <use xlink:href="#DejaVuSans-52"/>
     <use xlink:href="#DejaVuSans-65" x="64.982422"/>
     <use xlink:href="#DejaVuSans-73" x="126.505859"/>
     <use xlink:href="#DejaVuSans-65" x="178.605469"/>
     <use xlink:href="#DejaVuSans-72" x="240.128906"/>
     <use xlink:href="#DejaVuSans-76" x="281.242188"/>
     <use xlink:href="#DejaVuSans-65" x="340.421875"/>
     <use xlink:href="#DejaVuSans-20" x="401.945312"/>
     <use xlink:href="#DejaVuSans-56" x="433.732422"/>
     <use xlink:href="#DejaVuSans-61" x="494.390625"/>
     <use xlink:href="#DejaVuSans-72" x="555.669922"/>
     <use xlink:href="#DejaVuSans-69" x="596.783203"/>
     <use xlink:href="#DejaVuSans-61" x="624.566406"/>
     <use xlink:href="#DejaVuSans-62" x="685.845703"/>
     <use xlink:href="#DejaVuSans-69" x="749.322266"/>
     <use xlink:href="#DejaVuSans-6c" x="777.105469"/>
     <use xlink:href="#DejaVuSans-69" x="804.888672"/>
     <use xlink:href="#DejaVuSans-74" x="832.671875"/>
     <use xlink:href="#DejaVuSans-79" x="871.880859"/>
    </g>
   </g>
   <g id="legend_1">
    <g id="patch_107">
     <path d="M 324.118125 61.498 
L 399.02125 61.498 
Q 401.02125 61.498 401.02125 59.498 
L 401.02125 31.14175 
Q 401.02125 29.14175 399.02125 29.14175 
L 324.118125 29.14175 
Q 322.118125 29.14175 322.118125 31.14175 
L 322.118125 59.498 
Q 322.118125 61.498 324.118125 61.498 
z
" style="fill: #e5e5e5; opacity: 0.8; stroke: #cccccc; stroke-width: 0.5; stroke-linejoin: miter"/>
    </g>
    <g id="patch_108">
     <path d="M 326.118125 40.740187 
L 346.118125 40.740187 
L 346.118125 33.740187 
L 326.118125 33.740187 
z
" style="fill: #e24a33; opacity: 0.5"/>
    </g>
    <g id="text_14">
     <!-- Original -->
     <g transform="translate(354.118125 40.740187) scale(0.1 -0.1)">
      <defs>
       <path id="DejaVuSans-4f" d="M 2522 4238 
Q 1834 4238 1429 3725 
Q 1025 3213 1025 2328 
Q 1025 1447 1429 934 
Q 1834 422 2522 422 
Q 3209 422 3611 934 
Q 4013 1447 4013 2328 
Q 4013 3213 3611 3725 
Q 3209 4238 2522 4238 
z
M 2522 4750 
Q 3503 4750 4090 4092 
Q 4678 3434 4678 2328 
Q 4678 1225 4090 567 
Q 3503 -91 2522 -91 
Q 1538 -91 948 565 
Q 359 1222 359 2328 
Q 359 3434 948 4092 
Q 1538 4750 2522 4750 
z
" transform="scale(0.015625)"/>
       <path id="DejaVuSans-67" d="M 2906 1791 
Q 2906 2416 2648 2759 
Q 2391 3103 1925 3103 
Q 1463 3103 1205 2759 
Q 947 2416 947 1791 
Q 947 1169 1205 825 
Q 1463 481 1925 481 
Q 2391 481 2648 825 
Q 2906 1169 2906 1791 
z
M 3481 434 
Q 3481 -459 3084 -895 
Q 2688 -1331 1869 -1331 
Q 1566 -1331 1297 -1286 
Q 1028 -1241 775 -1147 
L 775 -588 
Q 1028 -725 1275 -790 
Q 1522 -856 1778 -856 
Q 2344 -856 2625 -561 
Q 2906 -266 2906 331 
L 2906 616 
Q 2728 306 2450 153 
Q 2172 0 1784 0 
Q 1141 0 747 490 
Q 353 981 353 1791 
Q 353 2603 747 3093 
Q 1141 3584 1784 3584 
Q 2172 3584 2450 3431 
Q 2728 3278 2906 2969 
L 2906 3500 
L 3481 3500 
L 3481 434 
z
" transform="scale(0.015625)"/>
      </defs>
      <use xlink:href="#DejaVuSans-4f"/>
      <use xlink:href="#DejaVuSans-72" x="78.710938"/>
      <use xlink:href="#DejaVuSans-69" x="119.824219"/>
      <use xlink:href="#DejaVuSans-67" x="147.607422"/>
      <use xlink:href="#DejaVuSans-69" x="211.083984"/>
      <use xlink:href="#DejaVuSans-6e" x="238.867188"/>
      <use xlink:href="#DejaVuSans-61" x="302.246094"/>
      <use xlink:href="#DejaVuSans-6c" x="363.525391"/>
     </g>
    </g>
    <g id="patch_109">
     <path d="M 326.118125 55.418312 
L 346.118125 55.418312 
L 346.118125 48.418312 
L 326.118125 48.418312 
z
" style="fill: #348abd; opacity: 0.5"/>
    </g>
    <g id="text_15">
     <!-- Dropped -->
     <g transform="translate(354.118125 55.418312) scale(0.1 -0.1)">
      <defs>
       <path id="DejaVuSans-44" d="M 1259 4147 
L 1259 519 
L 2022 519 
Q 2988 519 3436 956 
Q 3884 1394 3884 2338 
Q 3884 3275 3436 3711 
Q 2988 4147 2022 4147 
L 1259 4147 
z
M 628 4666 
L 1925 4666 
Q 3281 4666 3915 4102 
Q 4550 3538 4550 2338 
Q 4550 1131 3912 565 
Q 3275 0 1925 0 
L 628 0 
L 628 4666 
z
" transform="scale(0.015625)"/>
       <path id="DejaVuSans-6f" d="M 1959 3097 
Q 1497 3097 1228 2736 
Q 959 2375 959 1747 
Q 959 1119 1226 758 
Q 1494 397 1959 397 
Q 2419 397 2687 759 
Q 2956 1122 2956 1747 
Q 2956 2369 2687 2733 
Q 2419 3097 1959 3097 
z
M 1959 3584 
Q 2709 3584 3137 3096 
Q 3566 2609 3566 1747 
Q 3566 888 3137 398 
Q 2709 -91 1959 -91 
Q 1206 -91 779 398 
Q 353 888 353 1747 
Q 353 2609 779 3096 
Q 1206 3584 1959 3584 
z
" transform="scale(0.015625)"/>
       <path id="DejaVuSans-70" d="M 1159 525 
L 1159 -1331 
L 581 -1331 
L 581 3500 
L 1159 3500 
L 1159 2969 
Q 1341 3281 1617 3432 
Q 1894 3584 2278 3584 
Q 2916 3584 3314 3078 
Q 3713 2572 3713 1747 
Q 3713 922 3314 415 
Q 2916 -91 2278 -91 
Q 1894 -91 1617 61 
Q 1341 213 1159 525 
z
M 3116 1747 
Q 3116 2381 2855 2742 
Q 2594 3103 2138 3103 
Q 1681 3103 1420 2742 
Q 1159 2381 1159 1747 
Q 1159 1113 1420 752 
Q 1681 391 2138 391 
Q 2594 391 2855 752 
Q 3116 1113 3116 1747 
z
" transform="scale(0.015625)"/>
       <path id="DejaVuSans-64" d="M 2906 2969 
L 2906 4863 
L 3481 4863 
L 3481 0 
L 2906 0 
L 2906 525 
Q 2725 213 2448 61 
Q 2172 -91 1784 -91 
Q 1150 -91 751 415 
Q 353 922 353 1747 
Q 353 2572 751 3078 
Q 1150 3584 1784 3584 
Q 2172 3584 2448 3432 
Q 2725 3281 2906 2969 
z
M 947 1747 
Q 947 1113 1208 752 
Q 1469 391 1925 391 
Q 2381 391 2643 752 
Q 2906 1113 2906 1747 
Q 2906 2381 2643 2742 
Q 2381 3103 1925 3103 
Q 1469 3103 1208 2742 
Q 947 2381 947 1747 
z
" transform="scale(0.015625)"/>
      </defs>
      <use xlink:href="#DejaVuSans-44"/>
      <use xlink:href="#DejaVuSans-72" x="77.001953"/>
      <use xlink:href="#DejaVuSans-6f" x="115.865234"/>
      <use xlink:href="#DejaVuSans-70" x="177.046875"/>
      <use xlink:href="#DejaVuSans-70" x="240.523438"/>
      <use xlink:href="#DejaVuSans-65" x="304"/>
      <use xlink:href="#DejaVuSans-64" x="365.523438"/>
     </g>
    </g>
   </g>
  </g>
 </g>
 <defs>
  <clipPath id="pd0ac4004d0">
   <rect x="48.90125" y="24.14175" width="357.12" height="266.112"/>
  </clipPath>
 </defs>
</svg>